<?xml version="1.0" standalone="no"?><!DOCTYPE svg PUBLIC "-//W3C//DTD SVG 1.1//EN" "http://www.w3.org/Graphics/SVG/1.1/DTD/svg11.dtd"><svg t="1594196864941" class="icon" viewBox="0 0 1024 1024" version="1.1" xmlns="http://www.w3.org/2000/svg" p-id="15521" xmlns:xlink="http://www.w3.org/1999/xlink" width="200" height="200"><defs><style type="text/css"></style></defs><path d="M959.700617 398.789111c-10.010127-28.316871-35.092642-48.747742-65.638401-53.203109l-215.230376-31.552432-93.451937-191.160554c-13.556359-27.711182-42.683625-45.61333-74.339613-45.61333-31.558452 0-60.789276 17.902148-74.340818 45.61333l-93.555493 191.160554-215.226765 31.552432c-30.544555 4.35181-55.731831 24.781477-65.741958 53.203109-10.014944 28.722671-2.528722 59.97888 19.31462 81.521184l157.984925 155.454999-36.614692 215.3243c-5.154981 30.042423 8.194264 60.79048 34.087174 78.489126 25.286017 17.092957 59.26843 18.913637 86.578629 4.552904l187.413229-99.323388 187.516786 99.525686c12.13907 6.371176 25.79417 9.809034 39.450474 9.809034 16.784694 0 33.073277-4.952683 47.231712-14.466699 25.789353-17.593885 39.138598-48.341942 33.982413-78.385569L782.507038 635.86283l157.98372-155.454998c21.739785-21.5411 29.227211-52.792493 19.209859-81.618721zM837.898094 463.141476L697.383027 601.432472l32.597636 191.801164c2.136168 12.347389 2.812902 32.107546-7.890817 39.431207-10.949367 7.412768-31.870328 0.574381-43.559045-5.599313l-167.600089-88.900236-167.512186 88.900236c-11.852482 6.253169-31.598189 13.04339-42.382587 5.799203-10.863872-7.405543-11.288938-27.283707-9.23104-39.631097l32.597636-191.801164L183.887468 463.141476c-8.887856-8.7265-16.045344-23.147441-12.094517-34.671188 4.115796-11.774212 18.928087-18.58972 31.934148-20.398359l191.962521-28.234988 83.555-170.807954c5.679992-11.610447 18.108059-25.924218 31.689704-25.924219 13.585259 0 26.013326 14.314975 31.692113 25.924219l83.551387 170.807954 191.881843 28.071223c13.007265 1.892929 30.769732 7.989558 34.885528 19.760158 4.027893 11.606835-6.077362 26.662364-15.047101 35.473154z" fill="#2c2c2c" p-id="15522"></path><path d="M500.503948 390.439511c-40.358405 0-65.020671 14.313771-88.784638 38.5883-39.54801 40.455941-38.737615 99.322184-38.737615 101.749757 0.202298 10.719373 8.998638 19.219492 19.719216 19.219492h0.404596c10.825339-0.202298 25.212564-9.304493 25.010266-20.129832 0-0.399779 1.075309-45.10879 29.091141-73.529218 15.98032-16.282562 37.13609-21.290636 66.362098-21.290636 10.92408 0 17.944294-11.984939 17.944294-22.909019 0-10.925284-10.704924-21.340006-21.529059-21.340006l-9.480299-0.358838z" fill="#2c2c2c" p-id="15523"></path></svg>