<?xml version="1.0" standalone="no"?><!DOCTYPE svg PUBLIC "-//W3C//DTD SVG 1.1//EN" "http://www.w3.org/Graphics/SVG/1.1/DTD/svg11.dtd"><svg t="1592382377686" class="icon" viewBox="0 0 1024 1024" version="1.1" xmlns="http://www.w3.org/2000/svg" p-id="27562" xmlns:xlink="http://www.w3.org/1999/xlink" width="200" height="200"><defs><style type="text/css"></style></defs><path d="M441.131337 272.453504h-144.038356c-13.609639 0-24.641482 11.035854-24.641482 24.644157v144.033008c0 13.614987 11.031843 24.642819 24.641482 24.642819h144.038356c13.609639 0 24.640145-11.026495 24.640146-24.642819V297.097661c-0.001337-13.608302-11.031843-24.644156-24.640146-24.644157z m-132.292538 127.169035c-1.601763 1.593741-3.785135 2.521641-5.968507 2.521641-2.191394 0-4.376103-0.929237-5.967169-2.438745-1.518867-1.593741-2.437408-3.779787-2.437408-5.964495 0-2.183372 0.91854-4.374766 2.437408-5.972518 3.19283-3.10726 8.733487-3.10726 11.934339 0 1.510845 1.597752 2.436071 3.789146 2.436071 5.972518a8.468755 8.468755 0 0 1-2.434734 5.881599z m78.083951-76.738897h-52.367496c-13.108253 0-20.076858 14.457317-20.076858 26.88502v15.145888a8.40324 8.40324 0 0 1-8.405914 8.397892 8.396555 8.396555 0 0 1-8.405915-8.397892v-15.145888c0-23.277711 15.53229-43.690164 36.888687-43.690164h52.367496a8.404577 8.404577 0 0 1 0 16.805144zM726.907019 558.229186h-144.038356c-13.609639 0-24.640145 11.031843-24.640146 24.644156v144.033008c0 13.606965 11.030506 24.638808 24.640146 24.638809h144.038356c13.609639 0 24.641482-11.031843 24.641482-24.638809V582.873342c0-13.612313-11.031843-24.644156-24.641482-24.644156zM441.131337 558.229186h-144.038356c-13.609639 0-24.641482 11.031843-24.641482 24.644156v144.033008c0 13.606965 11.031843 24.638808 24.641482 24.638809h144.038356c13.609639 0 24.640145-11.031843 24.640146-24.638809V582.873342c-0.001337-13.612313-11.031843-24.644156-24.640146-24.644156z" fill="#9286EB" p-id="27563"></path><path d="M740.586184 0H283.413816C139.731111 0 23.252976 122.256783 23.252976 273.067201v477.866935c0 150.810418 116.478135 273.065864 260.16084 273.065864h457.172368c143.682706 0 260.160841-122.255446 260.16084-273.065864V273.067201C1000.747024 122.256783 884.268889 0 740.586184 0zM499.392466 726.90635c0 32.175652-26.086813 58.262465-58.262466 58.262466h-144.038356c-32.176989 0-58.261128-26.08815-58.261128-58.262466V582.873342c0-32.179664 26.085476-58.262465 58.261128-58.262465h144.038356c32.175652 0 58.262465 26.084139 58.262466 58.262465v144.033008z m0-285.775681c0 32.179664-26.086813 58.262465-58.262466 58.262465h-144.038356c-32.176989 0-58.261128-26.084139-58.261128-58.262465V297.097661c0-32.175652 26.085476-58.266477 58.261128-58.266477h144.038356c32.175652 0 58.262465 26.092161 58.262466 58.266477v144.033008z m285.777018 285.775681c0 32.175652-26.086813 58.262465-58.261128 58.262466h-144.038356c-32.175652 0-58.262465-26.08815-58.262466-58.262466V582.873342c0-32.179664 26.086813-58.262465 58.262466-58.262465h144.038356c32.175652 0 58.261128 26.084139 58.261128 58.262465v144.033008z m0-285.775681c0 32.179664-26.086813 58.262465-58.261128 58.262465h-144.038356c-32.175652 0-58.262465-26.084139-58.262466-58.262465V297.097661c0-32.175652 26.086813-58.266477 58.262466-58.266477h144.038356c32.175652 0 58.261128 26.092161 58.261128 58.266477v144.033008z" fill="#9286EB" p-id="27564"></path><path d="M726.907019 272.453504h-144.038356c-13.609639 0-24.640145 11.035854-24.640146 24.644157v144.033008c0 13.614987 11.030506 24.642819 24.640146 24.642819h144.038356c13.609639 0 24.641482-11.026495 24.641482-24.642819V297.097661c0-13.608302-11.031843-24.644156-24.641482-24.644157z" fill="#9286EB" p-id="27565"></path></svg>