<?xml version="1.0" standalone="no"?><!DOCTYPE svg PUBLIC "-//W3C//DTD SVG 1.1//EN" "http://www.w3.org/Graphics/SVG/1.1/DTD/svg11.dtd"><svg t="1592382969240" class="icon" viewBox="0 0 1024 1024" version="1.1" xmlns="http://www.w3.org/2000/svg" p-id="44502" id="mx_n_1592382969241" xmlns:xlink="http://www.w3.org/1999/xlink" width="200" height="200"><defs><style type="text/css"></style></defs><path d="M753.031484 83.926037c-95.696152-74.714643-220.049975-101.325337-337.751124-72.155922-141.753123 33.775112-252.289855 145.847076-283.506247 289.135432-33.775112 145.847076 18.422789 298.346827 135.10045 392.507746 39.916042 31.216392 62.944528 78.296852 63.456272 128.959521 0 38.892554 25.075462 73.691154 62.432783 85.461269v40.93953c0 41.451274 33.775112 75.226387 75.226387 75.226387h86.484758c41.451274 0 75.226387-33.775112 75.226386-75.226387v-40.93953c37.357321-11.770115 62.432784-46.568716 62.944528-85.461269 0-48.103948 22.004998-94.16092 59.874063-124.353823 169.387306-133.565217 198.556722-378.690655 64.991504-548.077962-18.422789-25.075462-40.427786-47.08046-64.47976-66.014992z m-178.086956 864.335832c0 10.746627-8.69965 19.446277-19.446277 19.446277h-86.996502c-10.746627 0-19.446277-8.69965-19.446277-19.446277v-35.822089h125.889056v35.822089z m143.288356-295.788106c-51.686157 40.93953-81.367316 103.884058-80.855573 169.899051 0 18.934533-15.864068 34.798601-34.7986 34.7986H420.909545c-18.934533 0-34.286857-15.352324-34.7986-34.7986-0.511744-67.038481-31.216392-130.494753-83.414293-172.457772-100.301849-80.343828-145.847076-211.862069-116.677661-337.23938C213.141429 190.368816 307.302349 94.672664 429.097451 66.014993c27.634183-6.652674 55.268366-10.234883 83.414293-10.234883 184.73963 1.023488 334.168916 151.476262 333.145427 336.215892-0.511744 101.325337-46.568716 197.021489-125.889055 259.966017l-1.535232 0.511744z" fill="#cdcdcd" p-id="44503" data-spm-anchor-id="a313x.7781069.0.i100" class="selected"></path><path d="M400.951524 44.521739s-334.168916 146.870565-240.51974 404.277861c0 0 15.864068 165.293353 112.071964 213.397302 0 0 107.978011 168.875562 111.56022 189.345327s211.350325 40.93953 211.350325 40.93953l76.761619-57.827086 37.357321-134.076962 107.466267-133.565217s213.397301-327.516242-180.645677-521.979011l-194.462769-22.004997-40.93953 21.493253z" fill="#cdcdcd" p-id="44504" data-spm-anchor-id="a313x.7781069.0.i99" class="selected"></path><path d="M449.055472 185.763118c-15.352324 0-29.169415-8.69965-35.310345-23.028485-8.187906-18.934533 0.511744-40.93953 18.934533-49.639181 19.446277-8.187906 41.963018 0.511744 50.150925 19.958021 8.187906 19.446277-0.511744 41.963018-19.958021 50.150925-4.605697 1.535232-9.211394 2.558721-13.817092 2.55872zM263.804098 381.249375c-4.093953 0-8.69965-0.511744-12.793603-2.046976-19.958021-6.652674-30.704648-28.657671-23.54023-48.615692v-0.511744c15.864068-45.545227 40.93953-88.01999 73.691154-123.842079 14.84058-14.84058 38.892554-14.84058 53.733134 0 13.817091 13.817091 14.84058 35.822089 3.070464 50.662668-25.587206 28.657671-45.545227 61.921039-58.33883 98.254873-5.629185 15.864068-19.958021 26.098951-35.822089 26.09895z" fill="#FFFFFF" p-id="44505"></path></svg>