<?xml version="1.0" standalone="no"?><!DOCTYPE svg PUBLIC "-//W3C//DTD SVG 1.1//EN" "http://www.w3.org/Graphics/SVG/1.1/DTD/svg11.dtd"><svg t="1592383007524" class="icon" viewBox="0 0 1024 1024" version="1.1" xmlns="http://www.w3.org/2000/svg" p-id="45957" xmlns:xlink="http://www.w3.org/1999/xlink" width="200" height="200"><defs><style type="text/css"></style></defs><path d="M524.8 12.8l-123.0336 82.432L21.0944 484.7872l34.56 74.3424h82.9696V945.152L202.7008 998.4h199.0656V667.5712h203.8016V998.4h216.576l55.68-53.248V559.1552l89.2416-21.6064 18.944-52.736z" fill="#cdcdcd" p-id="45958"></path><path d="M511.0528 0.768v54.3744a104.832 104.832 0 0 1 67.2512 24.704c3.6352 4.6848 7.8848 8.8832 12.672 12.4416l366.5664 389.632 1.1008 1.152c11.8272 13.1328 11.1104 33.28-1.6128 45.5168-5.632 5.0432-12.9792 7.7312-20.5312 7.5008H904.704c-30.7968 0-55.7568 24.3456-55.7568 54.4v322.56c0 30.7712-24.2688 55.808-54.1184 55.808h-178.4832V670.3104c0-14.4128-5.888-28.2368-16.3328-38.4512a56.4992 56.4992 0 0 0-39.424-15.9232h-112.9472a56.576 56.576 0 0 0-39.4496 15.9232 53.7088 53.7088 0 0 0-16.3328 38.4512v298.5472H216.7296c-29.8496 0-54.1184-25.0368-54.1184-55.808v-322.56c0-30.0544-24.96-54.4-55.7568-54.4h-20.9152a31.5392 31.5392 0 0 1-21.9904-9.728 29.952 29.952 0 0 1-8.2432-22.144 28.8 28.8 0 0 1 8.0896-21.1456l1.1008-1.152L436.0192 87.808a102.5024 102.5024 0 0 1 75.008-32.64V0.768h0.0256z m0 0a159.232 159.232 0 0 0-116.0192 49.9712L24.0128 445.184a82.0992 82.0992 0 0 0-23.9104 59.136c-0.4096 22.528 8.4224 44.288 24.5248 60.4928a88.064 88.064 0 0 0 61.312 25.7024h20.6848v322.56c0 60.672 49.3568 110.1824 109.8752 110.1824h194.4832c9.9072 0.0256 19.4048-3.84 26.3168-10.752 6.912-6.9376 10.624-16.3072 10.3424-25.9584V670.3104h113.0496v316.2112c-0.3072 9.6512 3.4304 19.0208 10.3424 25.9328 6.912 6.912 16.384 10.8032 26.2912 10.7776h197.504c60.5184 0 109.8752-49.4848 109.8752-110.1824v-322.56h31.8464c22.528 0.3328 44.288-8.2688 60.5184-23.936a85.9392 85.9392 0 0 0 1.6128-121.344L627.5584 50.7392a12.416 12.416 0 0 1-6.1952-6.4768A161.28 161.28 0 0 0 511.232 0.768h-0.1792z" fill="#cdcdcd" p-id="45959"></path></svg>