<?xml version="1.0" standalone="no"?><!DOCTYPE svg PUBLIC "-//W3C//DTD SVG 1.1//EN" "http://www.w3.org/Graphics/SVG/1.1/DTD/svg11.dtd"><svg t="1592381918797" class="icon" viewBox="0 0 1049 1024" version="1.1" xmlns="http://www.w3.org/2000/svg" p-id="15468" xmlns:xlink="http://www.w3.org/1999/xlink" width="204.8828125" height="200"><defs><style type="text/css"></style></defs><path d="M1018.88 192.96a113.28 113.28 0 0 0-88.16-42.24H223.84l-3.84-44a113.44 113.44 0 0 0-110.24-89.28H68.8A37.6 37.6 0 0 0 31.84 55.04a36.96 36.96 0 0 0 36.96 36.96h40.96a38.24 38.24 0 0 1 37.12 28.8l54.08 619.2a113.12 113.12 0 0 0 110.08 89.28h560a113.44 113.44 0 0 0 110.72-90.24L1040.8 288a113.6 113.6 0 0 0-21.92-95.04z m-51.52 81.28L907.84 724.8a37.44 37.44 0 0 1-36.96 29.92h-560a38.08 38.08 0 0 1-36.96-28.8l-43.68-501.12h700.64a37.6 37.6 0 0 1 29.76 14.56 39.68 39.68 0 0 1 6.72 34.88z" fill="#FF1744" p-id="15469"></path><path d="M245.6 400l28.48 325.92a38.08 38.08 0 0 0 36.96 28.8h560a37.44 37.44 0 0 0 36.96-29.92L950.72 400z" fill="#FF1744" p-id="15470" data-spm-anchor-id="a313x.7781069.0.i39" class=""></path><path d="M276.8 939.84a68.16 68.16 0 1 0 68.16-68.16 68.16 68.16 0 0 0-68.16 68.16zM745.92 939.84a68.16 68.16 0 1 0 68.16-68.16A68.16 68.16 0 0 0 745.92 939.84z" fill="#FF1744" p-id="15471"></path></svg>